<svg xmlns="http://www.w3.org/2000/svg" width="38.541" height="34.15" viewBox="0 0 38.541 34.15">
  <path id="_753124_microwave_oven_cook_cooking_kitchen_icon" data-name="753124_microwave_oven_cook_cooking_kitchen_icon" d="M36.543,7.3H1.941a1.8,1.8,0,0,0-1.213.491h0A2.384,2.384,0,0,0-.028,9.558V41.446H38.513V9.558A2.132,2.132,0,0,0,36.543,7.3ZM33.237,17.654a2.423,2.423,0,0,1,2.238,2.572A2.422,2.422,0,0,1,33.237,22.8,2.423,2.423,0,0,1,31,20.226,2.423,2.423,0,0,1,33.237,17.654ZM28.186,34.625H4.8V15.5a1.2,1.2,0,0,1,1.138-1.385H27.015c.237.007,1.172.124,1.172,1.5V34.625Zm5.05-3.537a2.428,2.428,0,0,1-2.244-2.577,2.429,2.429,0,0,1,2.244-2.578A2.43,2.43,0,0,1,35.48,28.51,2.43,2.43,0,0,1,33.236,31.088Z" transform="translate(0.028 -7.296)" fill="#c18732"/>
</svg>
