<svg xmlns="http://www.w3.org/2000/svg" width="40.746" height="44.068" viewBox="0 0 40.746 44.068">
  <g id="_8666784_box_package_delivery_icon" data-name="8666784_box_package_delivery_icon" transform="translate(-0.109 0.565)">
    <path id="Path_1" data-name="Path 1" d="M37.964,29.192V13.653a3.885,3.885,0,0,0-1.942-3.36l-13.6-7.77a3.885,3.885,0,0,0-3.885,0l-13.6,7.77A3.885,3.885,0,0,0,3,13.653V29.192a3.885,3.885,0,0,0,1.942,3.36l13.6,7.77a3.885,3.885,0,0,0,3.885,0l13.6-7.77A3.885,3.885,0,0,0,37.964,29.192Z" transform="translate(0 0)" fill="none" stroke="#c18732" stroke-linecap="round" stroke-linejoin="round" stroke-width="5"/>
    <path id="Path_2" data-name="Path 2" d="M3.27,6.96l16.957,9.809L37.185,6.96" transform="translate(0.254 4.673)" fill="none" stroke="#c18732" stroke-linecap="round" stroke-linejoin="round" stroke-width="5"/>
    <line id="Line_8" data-name="Line 8" y1="19.58" transform="translate(20.482 21.422)" fill="none" stroke="#c18732" stroke-linecap="round" stroke-linejoin="round" stroke-width="5"/>
  </g>
</svg>
