<svg xmlns="http://www.w3.org/2000/svg" width="100.112" height="105.674" viewBox="0 0 100.112 105.674">
  <path id="_8726224_shopping_cart_icon" data-name="8726224_shopping_cart_icon" d="M38.152,91.988a8.343,8.343,0,1,0,8.343,8.343A8.343,8.343,0,0,0,38.152,91.988ZM96.55,75.3H29.809a5.562,5.562,0,1,1,0-11.124H77.035a16.759,16.759,0,0,0,16.045-12.1L101.9,21.214a5.562,5.562,0,0,0-5.347-7.091H28.358A16.722,16.722,0,0,0,12.686,3H7.562a5.562,5.562,0,0,0,0,11.124h5.125a5.587,5.587,0,0,1,5.347,4.033l.865,3.03v.028l9.125,31.937a16.686,16.686,0,0,0,1.784,33.276H96.55a5.562,5.562,0,1,0,0-11.124ZM89.177,25.247,82.385,49.02a5.587,5.587,0,0,1-5.35,4.036H39.566l-1.418-4.962L31.624,25.247ZM82.646,91.988a8.343,8.343,0,1,0,8.343,8.343A8.343,8.343,0,0,0,82.646,91.988Z" transform="translate(-2 -3)" fill="#fff"/>
</svg>
