<svg xmlns="http://www.w3.org/2000/svg" width="75.961" height="75.961" viewBox="0 0 75.961 75.961">
  <g id="icons" transform="translate(-2 -2)">
    <g id="block" transform="translate(2 2)">
      <path id="Path_275" data-name="Path 275" d="M24.788,2H9.6A7.618,7.618,0,0,0,2,9.6V24.788a7.618,7.618,0,0,0,7.6,7.6H24.788a7.618,7.618,0,0,0,7.6-7.6V9.6A7.618,7.618,0,0,0,24.788,2Z" transform="translate(-2 -2)" fill="#fff"/>
      <path id="Path_276" data-name="Path 276" d="M36.788,2H21.6A7.618,7.618,0,0,0,14,9.6V24.788a7.618,7.618,0,0,0,7.6,7.6H36.788a7.618,7.618,0,0,0,7.6-7.6V9.6A7.618,7.618,0,0,0,36.788,2Z" transform="translate(31.577 -2)" fill="#fff"/>
      <path id="Path_277" data-name="Path 277" d="M24.788,14H9.6A7.618,7.618,0,0,0,2,21.6V36.788a7.618,7.618,0,0,0,7.6,7.6H24.788a7.618,7.618,0,0,0,7.6-7.6V21.6A7.618,7.618,0,0,0,24.788,14Z" transform="translate(-2 31.577)" fill="#fff"/>
      <path id="Path_278" data-name="Path 278" d="M36.788,14H21.6A7.618,7.618,0,0,0,14,21.6V36.788a7.618,7.618,0,0,0,7.6,7.6H36.788a7.618,7.618,0,0,0,7.6-7.6V21.6A7.618,7.618,0,0,0,36.788,14Z" transform="translate(31.577 31.577)" fill="#fff"/>
    </g>
  </g>
</svg>
