<svg xmlns="http://www.w3.org/2000/svg" width="185.923" height="148.739" viewBox="0 0 185.923 148.739">
  <path id="truck-delivery" d="M67.073,134.146a18.592,18.592,0,1,1-18.592-18.592A18.592,18.592,0,0,1,67.073,134.146Zm120.85-37.185V124.85a9.177,9.177,0,0,1-4.783,7.962,32.477,32.477,0,0,0-64.077-6.117,9.385,9.385,0,0,1-9.052,7.451h-20.8a9.385,9.385,0,0,1-9.051-7.45,32.54,32.54,0,0,0-63.914,3.042,4.861,4.861,0,0,1-4.716,4.409H11.3a9.3,9.3,0,0,1-9.3-9.3V22.593A18.592,18.592,0,0,1,20.592,4H138.983a18.606,18.606,0,0,1,16.81,26.538c-2.828,6.008-5.055,10.647-5.055,10.647L169.33,78.37A18.592,18.592,0,0,1,187.923,96.962ZM158.936,78.37l-18.547-37.1.041-.086H122.85a9.3,9.3,0,0,0-9.3,9.3V69.073a9.3,9.3,0,0,0,9.3,9.3h36.087Zm-8.2,37.185a18.592,18.592,0,1,0,18.592,18.592A18.593,18.593,0,0,0,150.738,115.554Z" transform="translate(-2 -4)" fill="#fffcf8"/>
</svg>
