<svg xmlns="http://www.w3.org/2000/svg" width="44" height="22.67" viewBox="0 0 44 22.67">
  <path id="Path_272" data-name="Path 272" d="M31.754,50.945c-14.01,0-22.054-3.174-22.054-8.7,0-3.721,3.557-7.935,9.084-10.836a26.481,26.481,0,0,1,5.144-2.025,26.427,26.427,0,0,1,5.035-.985,26.924,26.924,0,0,1,5.144,0,29.84,29.84,0,0,1,5.363.985,30.486,30.486,0,0,1,5.144,2.025c5.418,2.846,9.084,7.169,9.084,10.836C53.809,47.771,45.764,50.945,31.754,50.945Zm0-21.014c-.821,0-1.7.055-2.572.109a24.4,24.4,0,0,0-4.761.93,26.772,26.772,0,0,0-4.816,1.915C14.789,35.4,11.4,39.234,11.4,42.244c0,4.378,7.826,7.06,20.413,7.06s20.413-2.682,20.413-7.06c0-3.01-3.393-6.841-8.209-9.358a27.331,27.331,0,0,0-4.871-1.915,26.87,26.87,0,0,0-5.089-.93A16.551,16.551,0,0,0,31.754,29.93Zm-.164,8.7a3.352,3.352,0,0,1-3.338-3.338V29.219a.832.832,0,0,1,.766-.821,26.924,26.924,0,0,1,5.144,0,.832.832,0,0,1,.766.821v6.129A3.341,3.341,0,0,1,31.59,38.632Zm-1.7-8.647v5.308a1.7,1.7,0,0,0,3.393,0V29.93C32.137,29.876,31.043,29.93,29.894,29.985Zm11.93,10.453A3.352,3.352,0,0,1,38.485,37.1v-6.95a.78.78,0,0,1,.328-.657.688.688,0,0,1,.711-.109,30.487,30.487,0,0,1,5.144,2.025.854.854,0,0,1,.438.711V37.1A3.305,3.305,0,0,1,41.824,40.438Zm-1.7-9.139v5.856a1.7,1.7,0,1,0,3.393,0V32.667A25.86,25.86,0,0,0,40.127,31.3ZM21.685,40.438A3.352,3.352,0,0,1,18.347,37.1v-4.98a.733.733,0,0,1,.438-.711,26.481,26.481,0,0,1,5.144-2.025,1.044,1.044,0,0,1,.711.109.78.78,0,0,1,.328.657V37.1A3.238,3.238,0,0,1,21.685,40.438Zm-1.642-7.771V37.1a1.7,1.7,0,1,0,3.393,0V31.3A20.913,20.913,0,0,0,20.043,32.667ZM19.222,45.91a.821.821,0,0,0,0-1.642h0a5.414,5.414,0,0,1-4.433-1.97.821.821,0,0,0-1.313.985,7.264,7.264,0,0,0,5.637,2.627Z" transform="translate(-9.7 -28.275)" fill="#fffcf8"/>
</svg>
