<svg xmlns="http://www.w3.org/2000/svg" width="19.4" height="21.299" viewBox="0 0 19.4 21.299">
  <path id="_3671686_duplicate_icon" data-name="3671686_duplicate_icon" d="M5.82,6.39V2.13A2.048,2.048,0,0,1,7.76,0h9.7A2.042,2.042,0,0,1,19.4,2.13V12.779a2.042,2.042,0,0,1-1.94,2.13H13.58v4.26a2.042,2.042,0,0,1-1.94,2.13H1.94A2.042,2.042,0,0,1,0,19.169V8.519A2.048,2.048,0,0,1,1.94,6.39Zm1.94,0h3.88a2.042,2.042,0,0,1,1.94,2.13v4.26h3.88V2.13H7.76ZM1.94,8.519V19.169h9.7V8.519Zm3.88,4.26v-2.13H7.76v2.13H9.7v2.13H7.76v2.13H5.82v-2.13H3.88v-2.13Z" fill="#c18732"/>
</svg>
