<svg xmlns="http://www.w3.org/2000/svg" width="46.958" height="56.115" viewBox="0 0 46.958 56.115">
  <g id="icons" transform="translate(-2)">
    <g id="delete" transform="translate(2)">
      <path id="Path_279" data-name="Path 279" d="M38.867,8H6.465a2.282,2.282,0,0,0-2.348,2.583L7.874,41.34a4.6,4.6,0,0,0,4.7,3.991H32.527a4.6,4.6,0,0,0,4.7-3.991L40.98,10.583A2.121,2.121,0,0,0,38.867,8Z" transform="translate(0.813 10.783)" fill="#c40000"/>
      <path id="Path_280" data-name="Path 280" d="M44.263,4.7H32.523a4.71,4.71,0,0,0-4.7-4.7h-4.7a4.71,4.71,0,0,0-4.7,4.7H6.7A4.71,4.71,0,0,0,2,9.392V11.74a2.218,2.218,0,0,0,2.348,2.348H46.611a2.218,2.218,0,0,0,2.348-2.348V9.392A4.71,4.71,0,0,0,44.263,4.7Z" transform="translate(-2)" fill="#c40000"/>
    </g>
  </g>
</svg>
