<svg xmlns="http://www.w3.org/2000/svg" width="77" height="44.917" viewBox="0 0 77 44.917">
  <path id="_9040443_filter_icon_1_" data-name="9040443_filter_icon (1)" d="M27.667,45.708A3.208,3.208,0,0,1,30.875,42.5h19.25a3.208,3.208,0,1,1,0,6.417H30.875A3.208,3.208,0,0,1,27.667,45.708ZM14.833,26.458a3.208,3.208,0,0,1,3.208-3.208H62.958a3.208,3.208,0,0,1,0,6.417H18.042A3.208,3.208,0,0,1,14.833,26.458ZM2,7.208A3.208,3.208,0,0,1,5.208,4H75.792a3.208,3.208,0,0,1,0,6.417H5.208A3.208,3.208,0,0,1,2,7.208Z" transform="translate(-2 -4)" fill="#090945"/>
</svg>
