<svg xmlns="http://www.w3.org/2000/svg" width="140.512" height="140.512" viewBox="0 0 140.512 140.512">
  <path id="bars" d="M3,26.419V10.806A7.806,7.806,0,0,1,10.806,3h124.9a7.806,7.806,0,0,1,7.806,7.806V26.419a7.807,7.807,0,0,1-7.806,7.806H10.806A7.807,7.807,0,0,1,3,26.419Zm7.806,62.45h124.9a7.807,7.807,0,0,0,7.806-7.806V65.45a7.806,7.806,0,0,0-7.806-7.806H10.806A7.806,7.806,0,0,0,3,65.45V81.062A7.807,7.807,0,0,0,10.806,88.869Zm0,54.644h124.9a7.807,7.807,0,0,0,7.806-7.806V120.094a7.806,7.806,0,0,0-7.806-7.806H10.806A7.806,7.806,0,0,0,3,120.094v15.612A7.807,7.807,0,0,0,10.806,143.512Z" transform="translate(-3 -3)" fill="#fffcf8"/>
</svg>
