<svg xmlns="http://www.w3.org/2000/svg" width="365.715" height="256" viewBox="0 0 365.715 256">
  <g id="_9057143_menu_right_icon" data-name="9057143_menu_right_icon" transform="translate(-2 -5)">
    <path id="Path_269" data-name="Path 269" d="M194.857,35.208a18.2,18.2,0,0,1-18.2,18.2H30.2a18.2,18.2,0,0,1,0-36.4H176.659A18.2,18.2,0,0,1,194.857,35.208Z" transform="translate(172.857 207.594)" fill="#100e79"/>
    <path id="Path_270" data-name="Path 270" d="M367.714,29.2a18.2,18.2,0,0,1-18.2,18.2H20.2a18.2,18.2,0,1,1,0-36.394H349.516A18.2,18.2,0,0,1,367.714,29.2Z" transform="translate(0 103.802)" fill="#100e79"/>
    <path id="Path_271" data-name="Path 271" d="M245.8,41.4a18.2,18.2,0,1,0,0-36.4H26.2a18.2,18.2,0,0,0,0,36.4Z" transform="translate(103.714)" fill="#100e79"/>
  </g>
</svg>
