<svg xmlns="http://www.w3.org/2000/svg" width="81.205" height="59.568" viewBox="0 0 81.205 59.568">
  <path id="_9110404_ordered_list_icon" data-name="9110404_ordered_list_icon" d="M23.157,1.745H75.413a5.806,5.806,0,0,1,0,11.612H23.157a5.806,5.806,0,0,1,0-11.612Zm0,46.449H75.413a5.806,5.806,0,0,1,0,11.612H23.157a5.806,5.806,0,0,1,0-11.612Zm0-23.225H75.413a5.806,5.806,0,0,1,0,11.612H23.157a5.806,5.806,0,0,1,0-11.612ZM2.476.845h4.18L6.383,13.357H3.707L4,3.371H1.233ZM2.969,28.4.357,28.087a4.891,4.891,0,0,1,1.359-3.379,4.413,4.413,0,0,1,3.228-1.243,4.388,4.388,0,0,1,2.148.517,3.89,3.89,0,0,1,1.51,1.5,3.931,3.931,0,0,1,.563,1.986A5.736,5.736,0,0,1,8.5,29.992,13.345,13.345,0,0,1,6.134,33.1l-.917.987H8.973v2.5H.014L.1,35.241l3.867-3.948a10.993,10.993,0,0,0,1.817-2.218,3.083,3.083,0,0,0,.43-1.423,1.318,1.318,0,0,0-.389-.987,1.405,1.405,0,0,0-1.039-.389,1.353,1.353,0,0,0-1.057.47A5.975,5.975,0,0,0,2.969,28.4Zm5.7,25.535a3.5,3.5,0,0,1,.7,2.166,4.064,4.064,0,0,1-1.335,3.066A4.72,4.72,0,0,1,4.676,60.41a4.4,4.4,0,0,1-3.164-1.179,3.79,3.79,0,0,1-1.063-3.5l2.648.244a2.1,2.1,0,0,0,.581,1.277,1.626,1.626,0,0,0,1.126.395,1.607,1.607,0,0,0,1.179-.453,1.469,1.469,0,0,0,.464-1.1,1.486,1.486,0,0,0-.633-1.213,6.381,6.381,0,0,0-2.241-.83l.267-2.328a3.611,3.611,0,0,0,1.179-.244,1.3,1.3,0,0,0,.534-.447,1.016,1.016,0,0,0,.186-.581.824.824,0,0,0-.261-.633,1.022,1.022,0,0,0-.737-.255,1.225,1.225,0,0,0-.755.255,1.26,1.26,0,0,0-.464.656l-.279.2L.664,50.348A4.011,4.011,0,0,1,4.816,46.69,3.9,3.9,0,0,1,7.6,47.747a3.368,3.368,0,0,1,1.132,2.531,3,3,0,0,1-.505,1.684,1.259,1.259,0,0,1-1.428.7,3.635,3.635,0,0,1,1.875,1.272Z" transform="translate(-0.014 -0.845)" fill="#fffcf8"/>
</svg>
