<?xml version="1.0" encoding="UTF-8"?><svg id="Layer_1" xmlns="http://www.w3.org/2000/svg" viewBox="0 0 220 198.2"><defs><style>.cls-1{fill:#fffcf8;stroke-width:0px;}</style></defs><path id="_8726224_shopping_cart_icon" class="cls-1" d="M74.04,166.9c-8.64,0-15.65,7-15.65,15.65,0,8.64,7,15.65,15.65,15.65,8.64,0,15.65-7,15.65-15.65h0c0-8.64-7-15.65-15.65-15.65ZM183.57,135.61H58.39c-5.76,0-10.43-4.66-10.44-10.42s4.66-10.43,10.42-10.44h88.59c13.96-.04,26.21-9.29,30.09-22.7l16.54-57.89c1.58-5.54-1.62-11.31-7.16-12.9-.93-.27-1.9-.4-2.87-.4H55.67C51.24,8.41,39.49.07,26.27,0h-9.61C10.9,0,6.23,4.67,6.23,10.43s4.67,10.43,10.43,10.43h9.61c4.65.02,8.73,3.1,10.03,7.56l1.62,5.68v.05l17.12,59.9c-17.18,1.85-29.62,17.27-27.77,34.46,1.71,15.9,15.13,27.95,31.12,27.95h125.18c5.76,0,10.43-4.67,10.43-10.43s-4.67-10.43-10.43-10.43h0ZM169.74,41.73l-12.74,44.59c-1.29,4.47-5.38,7.55-10.03,7.57h-70.27l-2.66-9.31-12.24-42.85h107.94ZM157.49,166.9c-8.64,0-15.65,7.01-15.65,15.65s7.01,15.65,15.65,15.65,15.65-7.01,15.65-15.65-7.01-15.65-15.65-15.65h0Z"/><rect class="cls-1" x="58" y="35.46" width="112" height="63"/></svg>