<svg xmlns="http://www.w3.org/2000/svg" width="104" height="104" viewBox="0 0 104 104">
  <path id="cookie-bite" d="M105.952,53.06A15.444,15.444,0,0,1,85.2,38.4c0-.338.077-.654.1-.986A15.464,15.464,0,0,1,64.4,22.8c0-.317.075-.614.093-.926A15.552,15.552,0,0,1,54,7.2a15.448,15.448,0,0,1,.94-5.152C54.624,2.042,54.317,2,54,2a52,52,0,1,0,52,52C106,53.683,105.958,53.376,105.952,53.06ZM20.2,59.2a2.6,2.6,0,1,1,2.6-2.6A2.6,2.6,0,0,1,20.2,59.2ZM38.4,80a5.2,5.2,0,1,1,5.2-5.2A5.2,5.2,0,0,1,38.4,80Zm0-36.4A10.4,10.4,0,1,1,48.8,33.2,10.4,10.4,0,0,1,38.4,43.6ZM54,56.6A2.6,2.6,0,1,1,56.6,54,2.6,2.6,0,0,1,54,56.6ZM67,85.2a2.6,2.6,0,1,1,2.6-2.6A2.6,2.6,0,0,1,67,85.2Zm13-26A5.2,5.2,0,1,1,85.2,54,5.2,5.2,0,0,1,80,59.2Z" transform="translate(-2 -2)" fill="#fffcf8"/>
</svg>
