<svg xmlns="http://www.w3.org/2000/svg" width="35.998" height="36" viewBox="0 0 35.998 36">
  <path id="weight-kg" d="M24,6a4.989,4.989,0,0,0-3.746,1.6A5.094,5.094,0,0,0,19,11a5.309,5.309,0,0,0,.4,2H13.578a5.5,5.5,0,0,0-5.465,4.869l-2.076,18A5.5,5.5,0,0,0,11.5,42h25a5.5,5.5,0,0,0,5.463-6.131l-2.076-18A5.5,5.5,0,0,0,34.422,13H28.6a5.309,5.309,0,0,0,.4-2,5.094,5.094,0,0,0-1.254-3.4A4.989,4.989,0,0,0,24,6Zm0,3a1.8,1.8,0,0,1,1.5.59,2.252,2.252,0,0,1,0,2.82A1.8,1.8,0,0,1,24,13a1.8,1.8,0,0,1-1.5-.59,2.252,2.252,0,0,1,0-2.82A1.8,1.8,0,0,1,24,9ZM16.293,22a1.25,1.25,0,0,1,1.25,1.25v3L20.8,22.436a1.249,1.249,0,0,1,1.9,1.625L19.332,28,22.7,31.938a1.249,1.249,0,1,1-1.9,1.625l-3.258-3.809v2.994a1.25,1.25,0,0,1-2.5,0v-9.5A1.25,1.25,0,0,1,16.293,22Zm12.682,0a4.416,4.416,0,0,1,3.793,2.1,1.249,1.249,0,0,1-2.133,1.3,1.92,1.92,0,0,0-1.66-.9c-1.341,0-2.475,1.6-2.475,3.5s1.134,3.5,2.475,3.5a1.932,1.932,0,0,0,1.525-.707V30h-.25a1.25,1.25,0,0,1,0-2.5h1.5A1.25,1.25,0,0,1,33,28.75v2.418a1.247,1.247,0,0,1-.139.57A4.417,4.417,0,0,1,28.975,34C26.232,34,24,31.309,24,28S26.232,22,28.975,22Z" transform="translate(-6.001 -6)" fill="#c18732"/>
</svg>
